<?xml version="1.0" encoding="UTF-8" standalone="no"?>
<!-- Created with Inkscape (http://www.inkscape.org/) -->

<svg
   version="1.1"
   id="svg2"
   width="1198.2986"
   height="512.48401"
   viewBox="0 0 1198.2986 512.48401"
   sodipodi:docname="soc.svg"
   inkscape:version="1.2.2 (b0a8486541, 2022-12-01)"
   xmlns:inkscape="http://www.inkscape.org/namespaces/inkscape"
   xmlns:sodipodi="http://sodipodi.sourceforge.net/DTD/sodipodi-0.dtd"
   xmlns="http://www.w3.org/2000/svg"
   xmlns:svg="http://www.w3.org/2000/svg">
  <defs
     id="defs6">
    <clipPath
       clipPathUnits="userSpaceOnUse"
       id="clipPath18">
      <path
         d="M 0,1.2207e-4 H 960 V 540.00012 H 0 Z"
         clip-rule="evenodd"
         id="path16" />
    </clipPath>
    <clipPath
       clipPathUnits="userSpaceOnUse"
       id="clipPath42">
      <path
         d="M 1.4305e-5,0 H 960.00001 V 540 H 1.4305e-5 Z"
         clip-rule="evenodd"
         id="path40" />
    </clipPath>
    <clipPath
       clipPathUnits="userSpaceOnUse"
       id="clipPath54">
      <path
         d="M 1.4305e-5,0 H 960.00001 V 540 H 1.4305e-5 Z"
         clip-rule="evenodd"
         id="path52" />
    </clipPath>
    <clipPath
       clipPathUnits="userSpaceOnUse"
       id="clipPath66">
      <path
         d="M 1.4305e-5,0 H 960.00001 V 540 H 1.4305e-5 Z"
         clip-rule="evenodd"
         id="path64" />
    </clipPath>
    <clipPath
       clipPathUnits="userSpaceOnUse"
       id="clipPath78">
      <path
         d="M 1.4305e-5,0 H 960.00001 V 540 H 1.4305e-5 Z"
         clip-rule="evenodd"
         id="path76" />
    </clipPath>
    <clipPath
       clipPathUnits="userSpaceOnUse"
       id="clipPath90">
      <path
         d="M 1.4305e-5,0 H 960.00001 V 540 H 1.4305e-5 Z"
         clip-rule="evenodd"
         id="path88" />
    </clipPath>
    <clipPath
       clipPathUnits="userSpaceOnUse"
       id="clipPath102">
      <path
         d="M 1.4305e-5,0 H 960.00001 V 540 H 1.4305e-5 Z"
         clip-rule="evenodd"
         id="path100" />
    </clipPath>
    <clipPath
       clipPathUnits="userSpaceOnUse"
       id="clipPath114">
      <path
         d="M 1.4305e-5,0 H 960.00001 V 540 H 1.4305e-5 Z"
         clip-rule="evenodd"
         id="path112" />
    </clipPath>
    <clipPath
       clipPathUnits="userSpaceOnUse"
       id="clipPath126">
      <path
         d="M 1.4305e-5,0 H 960.00001 V 540 H 1.4305e-5 Z"
         clip-rule="evenodd"
         id="path124" />
    </clipPath>
    <clipPath
       clipPathUnits="userSpaceOnUse"
       id="clipPath138">
      <path
         d="M 1.4305e-5,0 H 960.00001 V 540 H 1.4305e-5 Z"
         clip-rule="evenodd"
         id="path136" />
    </clipPath>
    <clipPath
       clipPathUnits="userSpaceOnUse"
       id="clipPath150">
      <path
         d="M 1.4305e-5,0 H 960.00001 V 540 H 1.4305e-5 Z"
         clip-rule="evenodd"
         id="path148" />
    </clipPath>
    <clipPath
       clipPathUnits="userSpaceOnUse"
       id="clipPath166">
      <path
         d="M 1.4305e-5,0 H 960.00001 V 540 H 1.4305e-5 Z"
         clip-rule="evenodd"
         id="path164" />
    </clipPath>
    <clipPath
       clipPathUnits="userSpaceOnUse"
       id="clipPath182">
      <path
         d="M 1.4305e-5,0 H 960.00001 V 540 H 1.4305e-5 Z"
         clip-rule="evenodd"
         id="path180" />
    </clipPath>
    <clipPath
       clipPathUnits="userSpaceOnUse"
       id="clipPath212">
      <path
         d="M 1.4305e-5,0 H 960.00001 V 540 H 1.4305e-5 Z"
         clip-rule="evenodd"
         id="path210" />
    </clipPath>
    <clipPath
       clipPathUnits="userSpaceOnUse"
       id="clipPath224">
      <path
         d="M 1.4305e-5,0 H 960.00001 V 540 H 1.4305e-5 Z"
         clip-rule="evenodd"
         id="path222" />
    </clipPath>
    <clipPath
       clipPathUnits="userSpaceOnUse"
       id="clipPath246">
      <path
         d="M 1.4305e-5,0 H 960.00001 V 540 H 1.4305e-5 Z"
         clip-rule="evenodd"
         id="path244" />
    </clipPath>
    <clipPath
       clipPathUnits="userSpaceOnUse"
       id="clipPath258">
      <path
         d="M 1.4305e-5,0 H 960.00001 V 540 H 1.4305e-5 Z"
         clip-rule="evenodd"
         id="path256" />
    </clipPath>
    <clipPath
       clipPathUnits="userSpaceOnUse"
       id="clipPath270">
      <path
         d="M 1.4305e-5,0 H 960.00001 V 540 H 1.4305e-5 Z"
         clip-rule="evenodd"
         id="path268" />
    </clipPath>
    <clipPath
       clipPathUnits="userSpaceOnUse"
       id="clipPath284">
      <path
         d="M 1.4305e-5,0 H 960.00001 V 540 H 1.4305e-5 Z"
         clip-rule="evenodd"
         id="path282" />
    </clipPath>
    <clipPath
       clipPathUnits="userSpaceOnUse"
       id="clipPath296">
      <path
         d="M 1.4305e-5,0 H 960.00001 V 540 H 1.4305e-5 Z"
         clip-rule="evenodd"
         id="path294" />
    </clipPath>
    <clipPath
       clipPathUnits="userSpaceOnUse"
       id="clipPath308">
      <path
         d="M 1.4305e-5,0 H 960.00001 V 540 H 1.4305e-5 Z"
         clip-rule="evenodd"
         id="path306" />
    </clipPath>
    <clipPath
       clipPathUnits="userSpaceOnUse"
       id="clipPath320">
      <path
         d="M 1.4305e-5,0 H 960.00001 V 540 H 1.4305e-5 Z"
         clip-rule="evenodd"
         id="path318" />
    </clipPath>
    <clipPath
       clipPathUnits="userSpaceOnUse"
       id="clipPath338">
      <path
         d="M 1.4305e-5,0 H 960.00001 V 540 H 1.4305e-5 Z"
         clip-rule="evenodd"
         id="path336" />
    </clipPath>
    <clipPath
       clipPathUnits="userSpaceOnUse"
       id="clipPath350">
      <path
         d="M 1.4305e-5,0 H 960.00001 V 540 H 1.4305e-5 Z"
         clip-rule="evenodd"
         id="path348" />
    </clipPath>
    <clipPath
       clipPathUnits="userSpaceOnUse"
       id="clipPath362">
      <path
         d="M 1.4305e-5,0 H 960.00001 V 540 H 1.4305e-5 Z"
         clip-rule="evenodd"
         id="path360" />
    </clipPath>
    <clipPath
       clipPathUnits="userSpaceOnUse"
       id="clipPath374">
      <path
         d="M 1.4305e-5,0 H 960.00001 V 540 H 1.4305e-5 Z"
         clip-rule="evenodd"
         id="path372" />
    </clipPath>
    <clipPath
       clipPathUnits="userSpaceOnUse"
       id="clipPath392">
      <path
         d="M 1.4305e-5,0 H 960.00001 V 540 H 1.4305e-5 Z"
         clip-rule="evenodd"
         id="path390" />
    </clipPath>
    <clipPath
       clipPathUnits="userSpaceOnUse"
       id="clipPath406">
      <path
         d="M 1.4305e-5,0 H 960.00001 V 540 H 1.4305e-5 Z"
         clip-rule="evenodd"
         id="path404" />
    </clipPath>
    <clipPath
       clipPathUnits="userSpaceOnUse"
       id="clipPath418">
      <path
         d="M 1.4305e-5,0 H 960.00001 V 540 H 1.4305e-5 Z"
         clip-rule="evenodd"
         id="path416" />
    </clipPath>
    <clipPath
       clipPathUnits="userSpaceOnUse"
       id="clipPath430">
      <path
         d="M 1.4305e-5,0 H 960.00001 V 540 H 1.4305e-5 Z"
         clip-rule="evenodd"
         id="path428" />
    </clipPath>
    <clipPath
       clipPathUnits="userSpaceOnUse"
       id="clipPath442">
      <path
         d="M 1.4305e-5,0 H 960.00001 V 540 H 1.4305e-5 Z"
         clip-rule="evenodd"
         id="path440" />
    </clipPath>
    <clipPath
       clipPathUnits="userSpaceOnUse"
       id="clipPath450">
      <path
         d="M 1.4305e-5,0 H 960.00001 V 540 H 1.4305e-5 Z"
         clip-rule="evenodd"
         id="path448" />
    </clipPath>
  </defs>
  <sodipodi:namedview
     id="namedview4"
     pagecolor="#ffffff"
     bordercolor="#666666"
     borderopacity="1.0"
     inkscape:showpageshadow="2"
     inkscape:pageopacity="0.0"
     inkscape:pagecheckerboard="0"
     inkscape:deskcolor="#d1d1d1"
     showgrid="false"
     inkscape:zoom="0.37565048"
     inkscape:cx="1309.7281"
     inkscape:cy="580.32669"
     inkscape:window-width="1920"
     inkscape:window-height="1012"
     inkscape:window-x="0"
     inkscape:window-y="0"
     inkscape:window-maximized="1"
     inkscape:current-layer="g10">
    <inkscape:page
       x="0"
       y="0"
       id="page8"
       width="1198.2986"
       height="512.48401" />
  </sodipodi:namedview>
  <g
     id="g10"
     inkscape:groupmode="layer"
     inkscape:label="Page 1"
     transform="matrix(1.3333333,0,0,-1.3333333,-44.999999,604.99998)">
    <path
       d="m 261.75,70.629 h 79.5 v 367.37 h -79.5 z"
       style="fill:none;stroke:#042433;stroke-width:1.5;stroke-linecap:butt;stroke-linejoin:miter;stroke-miterlimit:10;stroke-dasharray:none;stroke-opacity:1"
       id="path22" />
    <path
       d="M 420.75,152.88 H 481.5 V 438.63 H 420.75 Z"
       style="fill:none;stroke:#042433;stroke-width:1.5;stroke-linecap:butt;stroke-linejoin:miter;stroke-miterlimit:10;stroke-dasharray:none;stroke-opacity:1"
       id="path24" />
    <path
       d="M 582.75,378.75 H 643.5 V 438 h -60.75 z"
       style="fill:none;stroke:#042433;stroke-width:1.5;stroke-linecap:butt;stroke-linejoin:miter;stroke-miterlimit:10;stroke-dasharray:none;stroke-opacity:1"
       id="path26" />
    <g
       id="g28">
      <path
         d="m 582.75,303 h 60.75 v 59.25 h -60.75 z"
         style="fill:none;stroke:#042433;stroke-width:1.5;stroke-linecap:butt;stroke-linejoin:miter;stroke-miterlimit:10;stroke-dasharray:6, 4.5;stroke-dashoffset:0;stroke-opacity:1"
         id="path30" />
    </g>
    <path
       d="M 584.25,227.25 H 645 v 59.25 h -60.75 z"
       style="fill:none;stroke:#042433;stroke-width:1.5;stroke-linecap:butt;stroke-linejoin:miter;stroke-miterlimit:10;stroke-dasharray:none;stroke-opacity:1"
       id="path32" />
    <path
       d="M 584.25,152.25 H 645 v 59.25 h -60.75 z"
       style="fill:none;stroke:#042433;stroke-width:1.5;stroke-linecap:butt;stroke-linejoin:miter;stroke-miterlimit:10;stroke-dasharray:none;stroke-opacity:1"
       id="path34" />
    <g
       id="g36">
      <g
         id="g38"
         clip-path="url(#clipPath42)">
        <text
           xml:space="preserve"
           transform="matrix(1,0,0,-1,283.42,288.6)"
           style="font-variant:normal;font-weight:normal;font-size:18px;font-family:Aptos;-inkscape-font-specification:Aptos;writing-mode:lr-tb;fill:#000000;fill-opacity:1;fill-rule:nonzero;stroke:none"
           id="text46"><tspan
             x="0 9.4499998 19.422001 25.181999"
             y="0"
             sodipodi:role="line"
             id="tspan44">core</tspan></text>
      </g>
    </g>
    <g
       id="g48">
      <g
         id="g50"
         clip-path="url(#clipPath54)">
        <text
           xml:space="preserve"
           transform="matrix(-4.4e-8,1,1,4.4e-8,454.66,169.03)"
           style="font-variant:normal;font-weight:normal;font-size:18px;font-family:Aptos;-inkscape-font-specification:Aptos;writing-mode:lr-tb;fill:#000000;fill-opacity:1;fill-rule:nonzero;stroke:none"
           id="text58"><tspan
             x="0 9.5579996 19.656 29.754 35.514 45 53.748001 62.495998 66.222 76.32 85.806 95.255997 105.192 115.29 124.776 130.78799 134.478 144.036 154.026 164.12399 167.70599 177.804 187.272 192.90601 202.464 206.334 212.09399 222.03 232.092 237.78 247.26601"
             y="0"
             sodipodi:role="line"
             id="tspan56">address decoder and data router</tspan></text>
      </g>
    </g>
    <g
       id="g60">
      <g
         id="g62"
         clip-path="url(#clipPath66)">
        <text
           xml:space="preserve"
           transform="matrix(1,0,0,-1,594.82,417.82)"
           style="font-variant:normal;font-weight:normal;font-size:18px;font-family:Aptos;-inkscape-font-specification:Aptos;writing-mode:lr-tb;fill:#000000;fill-opacity:1;fill-rule:nonzero;stroke:none"
           id="text70"><tspan
             x="0 10.674 23.85 38.141998"
             y="0"
             sodipodi:role="line"
             id="tspan68">ROM </tspan></text>
      </g>
    </g>
    <g
       id="g72">
      <g
         id="g74"
         clip-path="url(#clipPath78)">
        <text
           xml:space="preserve"
           transform="matrix(1,0,0,-1,596.26,399.82)"
           style="font-variant:normal;font-weight:normal;font-size:14.04px;font-family:Aptos;-inkscape-font-specification:Aptos;writing-mode:lr-tb;fill:#000000;fill-opacity:1;fill-rule:nonzero;stroke:none"
           id="text82"><tspan
             x="0 4.1137199 11.99016 19.31904 23.85396 31.3092"
             y="0"
             sodipodi:role="line"
             id="tspan80">(data)</tspan></text>
      </g>
    </g>
    <g
       id="g84">
      <g
         id="g86"
         clip-path="url(#clipPath90)">
        <text
           xml:space="preserve"
           transform="matrix(1,0,0,-1,589.27,339.41)"
           style="font-variant:normal;font-weight:normal;font-size:18px;font-family:Aptos;-inkscape-font-specification:Aptos;writing-mode:lr-tb;fill:#000000;fill-opacity:1;fill-rule:nonzero;stroke:none"
           id="text94"><tspan
             x="0 10.872 24.101999 36.827999 45.450001"
             y="0"
             sodipodi:role="line"
             id="tspan92">BOOT </tspan></text>
      </g>
    </g>
    <g
       id="g96">
      <g
         id="g98"
         clip-path="url(#clipPath102)">
        <text
           xml:space="preserve"
           transform="matrix(1,0,0,-1,594.31,321.41)"
           style="font-variant:normal;font-weight:normal;font-size:14.04px;font-family:Aptos;-inkscape-font-specification:Aptos;writing-mode:lr-tb;fill:#000000;fill-opacity:1;fill-rule:nonzero;stroke:none"
           id="text106"><tspan
             x="0 4.1137199 11.99016 19.31904 23.85396 31.3092"
             y="0"
             sodipodi:role="line"
             id="tspan104">(data)</tspan></text>
      </g>
    </g>
    <g
       id="g108">
      <g
         id="g110"
         clip-path="url(#clipPath114)">
        <text
           xml:space="preserve"
           transform="matrix(1,0,0,-1,596.88,263.64)"
           style="font-variant:normal;font-weight:normal;font-size:18px;font-family:Aptos;-inkscape-font-specification:Aptos;writing-mode:lr-tb;fill:#000000;fill-opacity:1;fill-rule:nonzero;stroke:none"
           id="text118"><tspan
             x="0 10.8 21.402"
             y="0"
             sodipodi:role="line"
             id="tspan116">RAM</tspan></text>
      </g>
    </g>
    <g
       id="g120">
      <g
         id="g122"
         clip-path="url(#clipPath126)">
        <text
           xml:space="preserve"
           transform="matrix(1,0,0,-1,599.33,191.26)"
           style="font-variant:normal;font-weight:normal;font-size:18px;font-family:Aptos;-inkscape-font-specification:Aptos;writing-mode:lr-tb;fill:#000000;fill-opacity:1;fill-rule:nonzero;stroke:none"
           id="text130"><tspan
             x="0 4.6799998"
             y="0"
             sodipodi:role="line"
             id="tspan128">I/</tspan></text>
      </g>
    </g>
    <g
       id="g132">
      <g
         id="g134"
         clip-path="url(#clipPath138)">
        <text
           xml:space="preserve"
           transform="matrix(1,0,0,-1,610.01,191.26)"
           style="font-variant:normal;font-weight:normal;font-size:18px;font-family:Aptos;-inkscape-font-specification:Aptos;writing-mode:lr-tb;fill:#000000;fill-opacity:1;fill-rule:nonzero;stroke:none"
           id="text142"><tspan
             x="0"
             y="0"
             id="tspan140">O</tspan></text>
      </g>
    </g>
    <g
       id="g144">
      <g
         id="g146"
         clip-path="url(#clipPath150)">
        <text
           xml:space="preserve"
           transform="matrix(1,0,0,-1,623.21,191.26)"
           style="font-variant:normal;font-weight:normal;font-size:18px;font-family:Aptos;-inkscape-font-specification:Aptos;writing-mode:lr-tb;fill:#000000;fill-opacity:1;fill-rule:nonzero;stroke:none"
           id="text154"><tspan
             x="0"
             y="0"
             id="tspan152">*</tspan></text>
      </g>
    </g>
    <g
       id="g156">
      <path
         d="m 420,71.262 h 60.75 v 59.25 H 420 Z"
         style="fill:none;stroke:#042433;stroke-width:1.5;stroke-linecap:butt;stroke-linejoin:miter;stroke-miterlimit:10;stroke-dasharray:6, 4.5;stroke-dashoffset:0;stroke-opacity:1"
         id="path158" />
    </g>
    <g
       id="g160">
      <g
         id="g162"
         clip-path="url(#clipPath166)">
        <text
           xml:space="preserve"
           transform="matrix(1,0,0,-1,436.3,109.13)"
           style="font-variant:normal;font-weight:normal;font-size:18px;font-family:Aptos;-inkscape-font-specification:Aptos;writing-mode:lr-tb;fill:#000000;fill-opacity:1;fill-rule:nonzero;stroke:none"
           id="text170"><tspan
             x="0 12.384"
             y="0"
             sodipodi:role="line"
             id="tspan168">DM</tspan></text>
      </g>
    </g>
    <g
       id="g172">
      <path
         d="m 559.5,70.137 h 60.75 v 59.25 H 559.5 Z"
         style="fill:none;stroke:#042433;stroke-width:1.5;stroke-linecap:butt;stroke-linejoin:miter;stroke-miterlimit:10;stroke-dasharray:6, 4.5;stroke-dashoffset:0;stroke-opacity:1"
         id="path174" />
    </g>
    <g
       id="g176">
      <g
         id="g178"
         clip-path="url(#clipPath182)">
        <text
           xml:space="preserve"
           transform="matrix(1,0,0,-1,571.75,108)"
           style="font-variant:normal;font-weight:normal;font-size:18px;font-family:Aptos;-inkscape-font-specification:Aptos;writing-mode:lr-tb;fill:#000000;fill-opacity:1;fill-rule:nonzero;stroke:none"
           id="text186"><tspan
             x="0 11.88 20.502001"
             y="0"
             sodipodi:role="line"
             id="tspan184">DTM</tspan></text>
      </g>
    </g>
    <path
       d="m 345.5,295.03 h 71.75 v -1.5 H 345.5 Z m 1,-3.75 -6,3 6,3 z m 69.75,6 6,-3 -6,-3 z"
       style="fill:#000000;fill-opacity:1;fill-rule:nonzero;stroke:none"
       id="path188" />
    <path
       d="m 486.5,409.64 91.25,-0.49 v -1.5 l -91.25,0.49 z m 0.98,-3.75 -5.98,3.03 6.02,2.97 z m 89.29,5.52 5.98,-3.03 -6.02,-2.97 z"
       style="fill:#000000;fill-opacity:1;fill-rule:nonzero;stroke:none"
       id="path190" />
    <path
       d="m 486.5,333.92 h 97 v -1.5 h -97 z m 1,-3.75 -6,3 6,3 z"
       style="fill:#000000;fill-opacity:1;fill-rule:nonzero;stroke:none"
       id="path192" />
    <path
       d="m 485,258.71 h 94.25 v -1.5 H 485 Z m 1,-3.75 -6,3 6,3 z m 92.25,6 6,-3 -6,-3 z"
       style="fill:#000000;fill-opacity:1;fill-rule:nonzero;stroke:none"
       id="path194" />
    <path
       d="m 485,183.17 h 94.25 v -1.5 H 485 Z m 1,-3.75 -6,3 6,3 z m 92.25,6 6,-3 -6,-3 z"
       style="fill:#000000;fill-opacity:1;fill-rule:nonzero;stroke:none"
       id="path196" />
    <path
       d="m 346.25,99.975 h 69.5 v -1.5 h -69.5 z m 1,-3.75 -6,3 6,3.005 z m 67.5,6.005 6,-3.005 -6,-3 z"
       style="fill:#000000;fill-opacity:1;fill-rule:nonzero;stroke:none"
       id="path198" />
    <path
       d="M 486.5,99.931 H 556 v -1.5 h -69.5 z m 1,-3.75 -6,3 6,2.999 z m 67.5,5.999 6,-2.999 -6,-3 z"
       style="fill:#000000;fill-opacity:1;fill-rule:nonzero;stroke:none"
       id="path200" />
    <path
       d="m 650,166.84 h 94.25 v -1.5 H 650 Z m 1,-3.75 -6,3 6,3 z m 92.25,6 6,-3 -6,-3 z"
       style="fill:#000000;fill-opacity:1;fill-rule:nonzero;stroke:none"
       id="path202" />
    <path
       d="m 625.25,100.02 h 119 v -1.5 h -119 z m 1,-3.75 -6,3 6,3 z m 117,6 6,-3 -6,-3 z"
       style="fill:#000000;fill-opacity:1;fill-rule:nonzero;stroke:none"
       id="path204" />
    <g
       id="g206">
      <g
         id="g208"
         clip-path="url(#clipPath212)">
        <text
           xml:space="preserve"
           transform="matrix(1,0,0,-1,752.78,159.22)"
           style="font-variant:normal;font-weight:normal;font-size:18px;font-family:Aptos;-inkscape-font-specification:Aptos;writing-mode:lr-tb;fill:#000000;fill-opacity:1;fill-rule:nonzero;stroke:none"
           id="text216"><tspan
             x="0 12.744 23.129999 27.809999 40.32 45.467999 48.959999 60.966 71.568001 82.080002 89.279999 94.428001 97.919998 102.6 112.212 124.074 129.222 132.92999 143.118 153.558 158.23801 163.386 166.752"
             y="0"
             sodipodi:role="line"
             id="tspan214">GPIO, UART, I2C, SPI, …</tspan></text>
      </g>
    </g>
    <g
       id="g218">
      <g
         id="g220"
         clip-path="url(#clipPath224)">
        <text
           xml:space="preserve"
           transform="matrix(1,0,0,-1,752.78,93.744)"
           style="font-variant:normal;font-weight:normal;font-size:18px;font-family:Aptos;-inkscape-font-specification:Aptos;writing-mode:lr-tb;fill:#000000;fill-opacity:1;fill-rule:nonzero;stroke:none"
           id="text228"><tspan
             x="0 10.098 19.584 29.681999 39.743999 48.456001 52.110001 62.028 71.585999 77.400002 87.498001 100.476 110.034 115.794"
             y="0"
             sodipodi:role="line"
             id="tspan226">debug hardware</tspan></text>
      </g>
    </g>
    <path
       d="m 645,198.65 h 64.5"
       style="fill:none;stroke:#000000;stroke-width:1.5;stroke-linecap:butt;stroke-linejoin:miter;stroke-miterlimit:10;stroke-dasharray:none;stroke-opacity:1"
       id="path230" />
    <path
       d="M 709.5,198.46 V 453"
       style="fill:none;stroke:#000000;stroke-width:1.5;stroke-linecap:butt;stroke-linejoin:miter;stroke-miterlimit:10;stroke-dasharray:none;stroke-opacity:1"
       id="path232" />
    <path
       d="M 709.5,453 H 213"
       style="fill:none;stroke:#000000;stroke-width:1.5;stroke-linecap:butt;stroke-linejoin:miter;stroke-miterlimit:10;stroke-dasharray:none;stroke-opacity:1"
       id="path234" />
    <path
       d="M 213,453 V 401.25"
       style="fill:none;stroke:#000000;stroke-width:1.5;stroke-linecap:butt;stroke-linejoin:miter;stroke-miterlimit:10;stroke-dasharray:none;stroke-opacity:1"
       id="path236" />
    <path
       d="m 213,402 h 43 v -1.5 h -43 z m 42,2.25 6,-3 -6,-3 z"
       style="fill:#000000;fill-opacity:1;fill-rule:nonzero;stroke:none"
       id="path238" />
    <g
       id="g240">
      <g
         id="g242"
         clip-path="url(#clipPath246)">
        <text
           xml:space="preserve"
           transform="matrix(1,0,0,-1,725.52,313.97)"
           style="font-variant:normal;font-weight:normal;font-size:18px;font-family:Aptos;-inkscape-font-specification:Aptos;writing-mode:lr-tb;fill:#000000;fill-opacity:1;fill-rule:nonzero;stroke:none"
           id="text250"><tspan
             x="0 4.302 14.256 19.889999 29.375999 35.388 41.400002 51.462002 61.560001 67.176003 75.924004"
             y="0"
             sodipodi:role="line"
             id="tspan248">interrupts </tspan></text>
      </g>
    </g>
    <g
       id="g252">
      <g
         id="g254"
         clip-path="url(#clipPath258)">
        <text
           xml:space="preserve"
           transform="matrix(1,0,0,-1,758.76,292.37)"
           style="font-variant:normal;font-weight:normal;font-size:18px;font-family:Aptos;-inkscape-font-specification:Aptos;writing-mode:lr-tb;fill:#000000;fill-opacity:1;fill-rule:nonzero;stroke:none"
           id="text262"><tspan
             x="0 9.6000004"
             y="0"
             sodipodi:role="line"
             id="tspan260">+ </tspan></text>
      </g>
    </g>
    <g
       id="g264">
      <g
         id="g266"
         clip-path="url(#clipPath270)">
        <text
           xml:space="preserve"
           transform="matrix(1,0,0,-1,747.84,270.77)"
           style="font-variant:normal;font-weight:normal;font-size:18.024px;font-family:Aptos;-inkscape-font-specification:Aptos;writing-mode:lr-tb;fill:#000000;fill-opacity:1;fill-rule:nonzero;stroke:none"
           id="text274"><tspan
             x="0 5.7676802 10.075416 25.449888"
             y="0"
             sodipodi:role="line"
             id="tspan272">time</tspan></text>
      </g>
    </g>
    <path
       d="M 35.25,258.05 H 96 V 317.3 H 35.25 Z"
       style="fill:none;stroke:#042433;stroke-width:1.5;stroke-linecap:butt;stroke-linejoin:miter;stroke-miterlimit:10;stroke-dasharray:none;stroke-opacity:1"
       id="path276" />
    <g
       id="g278">
      <g
         id="g280"
         clip-path="url(#clipPath284)">
        <text
           xml:space="preserve"
           transform="matrix(1,0,0,-1,47.256,297.07)"
           style="font-variant:normal;font-weight:normal;font-size:18px;font-family:Aptos;-inkscape-font-specification:Aptos;writing-mode:lr-tb;fill:#000000;fill-opacity:1;fill-rule:nonzero;stroke:none"
           id="text288"><tspan
             x="0 10.674 23.85 38.141998"
             y="0"
             sodipodi:role="line"
             id="tspan286">ROM </tspan></text>
      </g>
    </g>
    <g
       id="g290">
      <g
         id="g292"
         clip-path="url(#clipPath296)">
        <text
           xml:space="preserve"
           transform="matrix(1,0,0,-1,48.816,279.07)"
           style="font-variant:normal;font-weight:normal;font-size:14.04px;font-family:Aptos;-inkscape-font-specification:Aptos;writing-mode:lr-tb;fill:#000000;fill-opacity:1;fill-rule:nonzero;stroke:none"
           id="text300"><tspan
             x="0"
             y="0"
             id="tspan298">(</tspan></text>
      </g>
    </g>
    <g
       id="g302">
      <g
         id="g304"
         clip-path="url(#clipPath308)">
        <text
           xml:space="preserve"
           transform="matrix(1,0,0,-1,52.896,279.07)"
           style="font-variant:normal;font-weight:normal;font-size:14.04px;font-family:Aptos;-inkscape-font-specification:Aptos;writing-mode:lr-tb;fill:#000000;fill-opacity:1;fill-rule:nonzero;stroke:none"
           id="text312"><tspan
             x="0 3.3555601 11.03544 17.760599 22.295521"
             y="0"
             sodipodi:role="line"
             id="tspan310">instr</tspan></text>
      </g>
    </g>
    <g
       id="g314">
      <g
         id="g316"
         clip-path="url(#clipPath320)">
        <text
           xml:space="preserve"
           transform="matrix(1,0,0,-1,79.896,279.07)"
           style="font-variant:normal;font-weight:normal;font-size:14.04px;font-family:Aptos;-inkscape-font-specification:Aptos;writing-mode:lr-tb;fill:#000000;fill-opacity:1;fill-rule:nonzero;stroke:none"
           id="text324"><tspan
             x="0"
             y="0"
             id="tspan322">)</tspan></text>
      </g>
    </g>
    <path
       d="M 198.31,247.08 H 256 v -1.5 h -57.69 z m 56.69,2.25 6,-3 -6,-3 z"
       style="fill:#000000;fill-opacity:1;fill-rule:nonzero;stroke:none"
       id="path326" />
    <g
       id="g328">
      <path
         d="m 34.5,176.77 h 60.75 v 59.25 H 34.5 Z"
         style="fill:none;stroke:#042433;stroke-width:1.5;stroke-linecap:butt;stroke-linejoin:miter;stroke-miterlimit:10;stroke-dasharray:6, 4.5;stroke-dashoffset:0;stroke-opacity:1"
         id="path330" />
    </g>
    <g
       id="g332">
      <g
         id="g334"
         clip-path="url(#clipPath338)">
        <text
           xml:space="preserve"
           transform="matrix(1,0,0,-1,43.224,213.17)"
           style="font-variant:normal;font-weight:normal;font-size:18px;font-family:Aptos;-inkscape-font-specification:Aptos;writing-mode:lr-tb;fill:#000000;fill-opacity:1;fill-rule:nonzero;stroke:none"
           id="text342"><tspan
             x="0 10.872 24.101999 36.827999"
             y="0"
             sodipodi:role="line"
             id="tspan340">BOOT</tspan></text>
      </g>
    </g>
    <g
       id="g344">
      <g
         id="g346"
         clip-path="url(#clipPath350)">
        <text
           xml:space="preserve"
           transform="matrix(1,0,0,-1,48.384,195.17)"
           style="font-variant:normal;font-weight:normal;font-size:14.04px;font-family:Aptos;-inkscape-font-specification:Aptos;writing-mode:lr-tb;fill:#000000;fill-opacity:1;fill-rule:nonzero;stroke:none"
           id="text354"><tspan
             x="0"
             y="0"
             id="tspan352">(</tspan></text>
      </g>
    </g>
    <g
       id="g356">
      <g
         id="g358"
         clip-path="url(#clipPath362)">
        <text
           xml:space="preserve"
           transform="matrix(1,0,0,-1,52.464,195.17)"
           style="font-variant:normal;font-weight:normal;font-size:14.04px;font-family:Aptos;-inkscape-font-specification:Aptos;writing-mode:lr-tb;fill:#000000;fill-opacity:1;fill-rule:nonzero;stroke:none"
           id="text366"><tspan
             x="0 3.3555601 11.03544 17.760599 22.295521"
             y="0"
             sodipodi:role="line"
             id="tspan364">instr</tspan></text>
      </g>
    </g>
    <g
       id="g368">
      <g
         id="g370"
         clip-path="url(#clipPath374)">
        <text
           xml:space="preserve"
           transform="matrix(1,0,0,-1,79.464,195.17)"
           style="font-variant:normal;font-weight:normal;font-size:14.04px;font-family:Aptos;-inkscape-font-specification:Aptos;writing-mode:lr-tb;fill:#000000;fill-opacity:1;fill-rule:nonzero;stroke:none"
           id="text378"><tspan
             x="0"
             y="0"
             id="tspan376">)</tspan></text>
      </g>
    </g>
    <path
       d="m 137.56,176.77 h 60.75 v 139.11 h -60.75 z"
       style="fill:none;stroke:#042433;stroke-width:1.5;stroke-linecap:butt;stroke-linejoin:miter;stroke-miterlimit:10;stroke-dasharray:none;stroke-opacity:1"
       id="path380" />
    <path
       d="m 96.75,284.63 h 35.81 v -1.5 H 96.75 Z m 34.81,2.25 6,-3 -6,-3 z"
       style="fill:#000000;fill-opacity:1;fill-rule:nonzero;stroke:none"
       id="path382" />
    <path
       d="m 96,207.15 h 35.81 v -1.5 H 96 Z m 34.81,2.25 6,-3 -6,-3 z"
       style="fill:#000000;fill-opacity:1;fill-rule:nonzero;stroke:none"
       id="path384" />
    <g
       id="g386">
      <g
         id="g388"
         clip-path="url(#clipPath392)">
        <text
           xml:space="preserve"
           transform="matrix(-4.4e-8,1,1,4.4e-8,174.86,201.79)"
           style="font-variant:normal;font-weight:normal;font-size:18px;font-family:Aptos;-inkscape-font-specification:Aptos;writing-mode:lr-tb;fill:#000000;fill-opacity:1;fill-rule:nonzero;stroke:none"
           id="text396"><tspan
             x="0 4.302 14.256 22.896 28.656 33.209999 38.358002 42.012001 47.736 57.672001 67.734001 73.421997 82.907997"
             y="0"
             sodipodi:role="line"
             id="tspan394">instr. router</tspan></text>
      </g>
    </g>
    <path
       d="m 36.75,116.33 h 161.56 v 33.442 H 36.75 Z"
       style="fill:none;stroke:#042433;stroke-width:1.5;stroke-linecap:butt;stroke-linejoin:miter;stroke-miterlimit:10;stroke-dasharray:none;stroke-opacity:1"
       id="path398" />
    <g
       id="g400">
      <g
         id="g402"
         clip-path="url(#clipPath406)">
        <text
           xml:space="preserve"
           transform="matrix(1,0,0,-1,96.816,129.53)"
           style="font-variant:normal;font-weight:normal;font-size:18.024px;font-family:Aptos;-inkscape-font-specification:Aptos;writing-mode:lr-tb;fill:#000000;fill-opacity:1;fill-rule:nonzero;stroke:none"
           id="text410"><tspan
             x="0 5.7676802 15.266328 24.025991 33.524639"
             y="0"
             sodipodi:role="line"
             id="tspan408">reset</tspan></text>
      </g>
    </g>
    <g
       id="g412">
      <g
         id="g414"
         clip-path="url(#clipPath418)">
        <text
           xml:space="preserve"
           transform="matrix(1,0,0,-1,41.712,76.344)"
           style="font-variant:normal;font-weight:normal;font-size:14.04px;font-family:Aptos;-inkscape-font-specification:Aptos;writing-mode:lr-tb;fill:#000000;fill-opacity:1;fill-rule:nonzero;stroke:none"
           id="text422"><tspan
             x="0 6.3599801"
             y="0"
             sodipodi:role="line"
             id="tspan420">* </tspan></text>
      </g>
    </g>
    <g
       id="g424">
      <g
         id="g426"
         clip-path="url(#clipPath430)">
        <text
           xml:space="preserve"
           transform="matrix(1,0,0,-1,50.952,76.344)"
           style="font-variant:normal;font-weight:normal;font-size:14.04px;font-family:Aptos;-inkscape-font-specification:Aptos;writing-mode:lr-tb;fill:#000000;fill-opacity:1;fill-rule:nonzero;stroke:none"
           id="text434"><tspan
             x="0 11.03544 18.841681 23.3766 26.732161 34.664761 38.258999"
             y="0"
             sodipodi:role="line"
             id="tspan432">Mutiple</tspan></text>
      </g>
    </g>
    <g
       id="g436">
      <g
         id="g438"
         clip-path="url(#clipPath442)" />
    </g>
    <g
       id="g444">
      <g
         id="g446"
         clip-path="url(#clipPath450)">
        <text
           xml:space="preserve"
           transform="matrix(1,0,0,-1,99.432,76.344)"
           style="font-variant:normal;font-weight:normal;font-size:14.04px;font-family:Aptos;-inkscape-font-specification:Aptos;writing-mode:lr-tb;fill:#000000;fill-opacity:1;fill-rule:nonzero;stroke:none"
           id="text454"><tspan
             x="0 7.3990798 15.13512 19.67004 23.0256 27.56052 30.94416 38.343239"
             y="0"
             sodipodi:role="line"
             id="tspan452">entities</tspan></text>
      </g>
    </g>
  </g>
</svg>
